<svg width="32" height="32" viewBox="0 0 32 32" fill="none" xmlns="http://www.w3.org/2000/svg">
<path d="M25.3334 14.667H9.52004L14.36 8.8537C14.5864 8.58141 14.6952 8.23037 14.6627 7.8778C14.6302 7.52523 14.459 7.20002 14.1867 6.9737C13.9144 6.74738 13.5634 6.6385 13.2108 6.67101C12.8582 6.70351 12.533 6.87475 12.3067 7.14704L5.64004 15.147C5.59519 15.2107 5.55508 15.2775 5.52004 15.347C5.52004 15.4137 5.52004 15.4537 5.42671 15.5204C5.36627 15.6732 5.33463 15.836 5.33337 16.0004C5.33463 16.1648 5.36627 16.3275 5.42671 16.4804C5.42671 16.547 5.42671 16.587 5.52004 16.6537C5.55508 16.7232 5.59519 16.7901 5.64004 16.8537L12.3067 24.8537C12.4321 25.0042 12.5891 25.1253 12.7665 25.2082C12.9439 25.2912 13.1375 25.334 13.3334 25.3337C13.6449 25.3343 13.9468 25.2258 14.1867 25.027C14.3217 24.9151 14.4333 24.7776 14.5151 24.6225C14.5969 24.4674 14.6473 24.2976 14.6634 24.123C14.6795 23.9484 14.661 23.7723 14.609 23.6048C14.5569 23.4373 14.4723 23.2818 14.36 23.147L9.52004 17.3337H25.3334C25.687 17.3337 26.0261 17.1932 26.2762 16.9432C26.5262 16.6931 26.6667 16.354 26.6667 16.0004C26.6667 15.6467 26.5262 15.3076 26.2762 15.0576C26.0261 14.8075 25.687 14.667 25.3334 14.667Z" fill="#393A3A"/>
</svg>
