<svg width="32" height="32" viewBox="0 0 32 32" fill="none" xmlns="http://www.w3.org/2000/svg">
<path d="M25.3333 14.667H9.51992L14.3599 8.8537C14.5862 8.58141 14.6951 8.23037 14.6626 7.8778C14.6301 7.52523 14.4589 7.20002 14.1866 6.9737C13.9143 6.74738 13.5633 6.6385 13.2107 6.67101C12.8581 6.70351 12.5329 6.87475 12.3066 7.14704L5.63992 15.147C5.59507 15.2107 5.55496 15.2775 5.51992 15.347C5.51992 15.4137 5.51992 15.4537 5.42659 15.5204C5.36615 15.6732 5.33451 15.836 5.33325 16.0004C5.33451 16.1648 5.36615 16.3275 5.42659 16.4804C5.42659 16.547 5.42659 16.587 5.51992 16.6537C5.55496 16.7232 5.59507 16.7901 5.63992 16.8537L12.3066 24.8537C12.4319 25.0042 12.5889 25.1253 12.7664 25.2082C12.9438 25.2912 13.1374 25.334 13.3333 25.3337C13.6448 25.3343 13.9467 25.2258 14.1866 25.027C14.3216 24.9151 14.4332 24.7776 14.515 24.6225C14.5968 24.4674 14.6472 24.2976 14.6633 24.123C14.6794 23.9484 14.6609 23.7723 14.6088 23.6048C14.5568 23.4373 14.4722 23.2818 14.3599 23.147L9.51992 17.3337H25.3333C25.6869 17.3337 26.026 17.1932 26.2761 16.9432C26.5261 16.6931 26.6666 16.354 26.6666 16.0004C26.6666 15.6467 26.5261 15.3076 26.2761 15.0576C26.026 14.8075 25.6869 14.667 25.3333 14.667Z" fill="white"/>
</svg>
